<?xml version="1.0" standalone="no"?>
<!DOCTYPE svg PUBLIC "-//W3C//DTD SVG 20010904//EN"
 "http://www.w3.org/TR/2001/REC-SVG-20010904/DTD/svg10.dtd">
<svg version="1.0" xmlns="http://www.w3.org/2000/svg"
 width="1501.000000pt" height="1501.000000pt" viewBox="0 0 1501.000000 1501.000000"
 preserveAspectRatio="xMidYMid meet">
<metadata>
Created by potrace 1.14, written by Peter Selinger 2001-2017
</metadata>
<g transform="translate(0.000000,1501.000000) scale(0.100000,-0.100000)"
fill="#000000" stroke="none">
<path d="M7185 14999 c-1561 -66 -3053 -614 -4285 -1573 -463 -360 -907 -800
-1271 -1259 -128 -161 -243 -316 -238 -321 2 -1 34 -19 70 -39 276 -152 640
-444 938 -753 372 -385 712 -809 1371 -1714 943 -1294 1309 -1725 1920 -2263
545 -479 1053 -785 1510 -910 218 -60 302 -71 530 -71 183 0 219 3 330 27 325
68 627 217 930 457 124 98 422 394 539 535 116 139 397 514 490 654 183 273
360 586 631 1111 323 628 462 894 546 1047 258 469 475 804 723 1117 119 149
415 449 539 546 280 219 623 388 904 446 46 10 87 20 91 24 18 16 -324 418
-568 669 -1263 1295 -2913 2085 -4690 2245 -350 32 -667 40 -1010 25z m-1770
-2924 c140 -30 256 -111 313 -219 l27 -51 3 -837 2 -838 -200 0 -200 0 0 745
c0 827 3 792 -65 821 -26 10 -82 14 -220 14 l-185 0 0 -790 0 -790 -200 0
-200 0 0 980 0 980 428 0 c338 0 442 -3 497 -15z m1596 5 c132 -25 254 -121
301 -238 l23 -57 0 -670 0 -670 -34 -62 c-45 -83 -142 -175 -228 -216 l-68
-32 -310 0 -310 0 -68 33 c-89 44 -188 137 -224 210 l-28 57 -3 660 c-2 640
-2 662 18 727 36 120 151 219 293 254 64 15 560 19 638 4z m1646 -13 c105 -35
201 -126 240 -227 16 -41 18 -113 21 -877 l3 -833 -201 0 -200 0 0 370 0 370
-240 0 -240 0 0 -370 0 -370 -200 0 -201 0 3 828 3 827 27 58 c49 104 166 198
289 232 82 22 622 16 696 -8z m1538 8 c125 -33 217 -104 264 -205 l26 -55 3
-842 2 -843 -195 0 -195 0 0 370 0 370 -240 0 -240 0 0 -370 0 -370 -200 0
-200 0 2 833 3 832 25 50 c30 61 121 155 180 185 106 55 135 59 430 59 218 1
288 -2 335 -14z"/>
<path d="M6533 11705 c-18 -8 -42 -29 -53 -47 -19 -32 -20 -49 -20 -548 0
-493 1 -516 20 -547 33 -54 62 -63 217 -63 157 0 193 11 225 71 17 31 18 69
18 539 0 470 -1 508 -18 539 -32 60 -68 71 -222 71 -93 -1 -145 -5 -167 -15z"/>
<path d="M8122 11694 c-18 -9 -43 -31 -55 -48 -20 -29 -22 -44 -25 -213 l-3
-183 240 0 241 0 0 173 c0 190 -7 220 -63 261 -25 18 -45 21 -165 24 -112 2
-143 -1 -170 -14z"/>
<path d="M9700 11693 c-19 -10 -45 -33 -57 -52 -22 -32 -23 -44 -23 -212 l0
-179 241 0 241 0 -4 178 c-5 263 -14 275 -228 280 -114 3 -140 0 -170 -15z"/>
<path d="M14217 10818 c-7 -19 -302 -448 -445 -648 -418 -584 -876 -1156
-1310 -1635 -191 -211 -709 -727 -892 -890 -470 -417 -911 -744 -1355 -1005
-217 -127 -594 -308 -877 -420 -142 -57 -256 -106 -253 -110 2 -4 33 -15 67
-25 98 -27 336 -23 648 11 311 33 590 38 710 11 106 -24 210 -76 270 -136 62
-62 132 -201 102 -201 -47 0 -371 -25 -532 -41 -637 -63 -1135 -177 -1636
-375 -241 -95 -518 -227 -1054 -502 -515 -265 -894 -401 -1305 -469 -154 -25
-502 -25 -630 0 -193 38 -355 101 -497 192 -79 51 -212 155 -206 161 3 2 67
15 144 29 731 135 1630 481 1976 762 l38 30 -163 7 c-705 31 -1304 136 -1892
332 -1027 343 -1931 951 -2824 1899 -207 219 -298 320 -746 826 -393 444 -537
587 -743 741 -142 105 -342 197 -470 214 l-48 6 -62 -248 c-137 -554 -201
-1008 -221 -1576 -41 -1088 163 -2181 596 -3203 94 -220 298 -628 417 -830
855 -1455 2172 -2585 3731 -3200 1705 -672 3621 -694 5342 -59 2596 956 4469
3285 4837 6015 53 393 60 512 61 1014 0 479 -5 572 -46 915 -83 700 -282 1434
-559 2070 -83 189 -158 350 -164 350 -2 0 -6 -6 -9 -12z"/>
</g>
</svg>
